<svg width="128" height="127" viewBox="0 0 128 127" fill="none" xmlns="http://www.w3.org/2000/svg">
<path d="M9.05208 0H118.948C121.438 0 123.708 1.01899 125.344 2.65147C126.979 4.28394 128 6.55068 128 9.03578V117.964C128 120.449 126.979 122.716 125.344 124.349C123.708 125.981 121.438 127 118.948 127H9.05208C6.5625 127 4.29167 125.981 2.65625 124.349C1.02083 122.716 0 120.449 0 117.964V9.03578C0 6.55068 1.02083 4.28394 2.65625 2.65147C4.29167 1.01899 6.5625 0 9.05208 0ZM7.3125 91.8135L46.3854 56.575C47.875 55.2337 50.1771 55.348 51.5208 56.8349C51.5521 56.8661 51.5729 56.8973 51.6042 56.9285L51.6146 56.9181L84.375 95.6191L89.3958 64.8517C89.7188 62.8657 91.5938 61.5244 93.5833 61.8467C94.3646 61.9715 95.0417 62.3354 95.5625 62.8449L120.719 86.9473V9.03578C120.719 8.55747 120.521 8.13116 120.208 7.80883C119.896 7.49689 119.458 7.29933 118.979 7.29933H9.05208C8.57292 7.29933 8.14583 7.49689 7.82292 7.80883C7.51042 8.12076 7.3125 8.55747 7.3125 9.03578V91.8135ZM120.688 97.0332L95.4583 72.8581L90.3021 104.478C90.1875 105.341 89.7604 106.173 89.0417 106.786C87.5 108.086 85.2083 107.889 83.9063 106.36L48.4583 64.4878L7.3125 101.608V117.964C7.3125 118.443 7.51042 118.869 7.82292 119.191C8.14583 119.514 8.57292 119.701 9.05208 119.701H118.948C119.427 119.701 119.854 119.503 120.177 119.191C120.49 118.879 120.688 118.443 120.688 117.964V97.0332ZM96.4583 20.6502C100.083 20.6502 103.354 22.1163 105.729 24.4871C108.104 26.8578 109.573 30.1331 109.573 33.7412C109.573 37.3493 108.104 40.6246 105.729 42.9953C103.354 45.3661 100.073 46.8322 96.4583 46.8322C92.8333 46.8322 89.5625 45.3661 87.1875 42.9953C84.8125 40.6246 83.3438 37.3493 83.3438 33.7412C83.3438 30.1331 84.8125 26.8578 87.1875 24.4871C89.5625 22.1163 92.8333 20.6502 96.4583 20.6502ZM101.646 28.563C100.323 27.2425 98.4896 26.4211 96.4583 26.4211C94.4375 26.4211 92.6042 27.2425 91.2708 28.563C89.9479 29.8836 89.125 31.7136 89.125 33.7412C89.125 35.7584 89.9479 37.5884 91.2708 38.9194C92.5938 40.2399 94.4271 41.0613 96.4583 41.0613C98.4792 41.0613 100.313 40.2399 101.646 38.9194C102.969 37.5988 103.792 35.7688 103.792 33.7412C103.792 31.724 102.969 29.894 101.646 28.563Z" fill="#2F2F2F"/>
</svg>
